<?xml version="1.0" encoding="UTF-8"?>
<svg width="212px" height="136px" viewBox="0 0 212 136" version="1.1" xmlns="http://www.w3.org/2000/svg" xmlns:xlink="http://www.w3.org/1999/xlink">
    <g id="bbot-logo" stroke="none" stroke-width="1" fill="none" fill-rule="evenodd">
        <polygon id="Triangle" fill="#FFCE64" points="106 0 178 116 34 116"></polygon>
        <path d="M48.1211723,135.345962 C53.1935563,125.258066 61.6899154,112.534541 62.7530302,111.082217 C63.816145,109.629893 66.6032854,109.648659 65.8824654,111.082217 C60.8145636,121.161199 52.3001657,132.571008 51.1755867,134.107298 C50.0510078,135.643588 47.4048346,136.770606 48.1211723,135.345962 Z" id="Path-9" fill="#5A5A5A"></path>
        <path d="M67.1094242,133.344662 C70.9242255,125.396971 78.3133168,114.764074 79.5387689,113.079977 C80.7642211,111.39588 83.5925926,110.193635 82.8892226,111.659024 C79.0747296,119.606072 71.7321543,130.215726 70.503043,131.904852 C69.2739317,133.593977 66.4063625,134.809409 67.1094242,133.344662 Z" id="Path-11" fill="#5A5A5A"></path>
        <path d="M56.1080815,135.106646 C60.7763423,126.617401 68.770011,116.725106 69.5698152,115.745006 C70.3696193,114.764905 72.4614881,114.738512 71.9080144,115.745006 C67.1379767,124.419333 59.8944557,133.915945 58.9227924,135.106646 C57.9511291,136.297348 55.4528309,136.298221 56.1080815,135.106646 Z" id="Path-10" fill="#5A5A5A"></path>
        <path d="M87.0907024,19.2124359 C89.8338689,17.9926589 98.6586846,22.3389245 99.6630303,24.2830791 C100.332594,25.5791822 100.004333,26.9848225 98.6782469,28.5 C91.3311251,31.5797478 86.5645954,34.5550958 84.3786577,37.4260441 C81.0997512,41.7324665 84.3475359,20.4322129 87.0907024,19.2124359 Z" id="Path-4" fill="#5A5A5A"></path>
        <path d="M142.5,113 C144.432997,113 146,111.24267 146,109.074893 C146,106.907116 145.833308,105 143.286659,105 C140.740009,105 139,106.907116 139,109.074893 C139,111.24267 140.567003,113 142.5,113 Z" id="Oval-3" fill="#5A5A5A"></path>
        <path d="M135,127 C137.209139,127 139,125.024379 139,122.587327 C139,120.150276 137.460379,117.254938 135,118.174655 C132.539621,119.094372 131,120.150276 131,122.587327 C131,125.024379 132.790861,127 135,127 Z" id="Oval" fill="#5A5A5A"></path>
        <path d="M147.160807,134 C149.093804,134 150,132.50059 150,130.543545 C150,128.586499 148.432997,127 146.5,127 C144.567003,127 143,128.586499 143,130.543545 C143,132.50059 145.227811,134 147.160807,134 Z" id="Oval-2" fill="#5A5A5A"></path>
        <path d="M146,37 C147.656854,37 149,35.4623361 149,33.5655315 C149,31.6687269 148.857121,30 146.674279,30 C144.491436,30 143,31.6687269 143,33.5655315 C143,35.4623361 144.343146,37 146,37 Z" id="Oval-3" fill="#5A5A5A" transform="translate(146.000000, 33.500000) rotate(28.000000) translate(-146.000000, -33.500000) "></path>
        <path d="M164,23 C165.656854,23 167,21.6829195 167,20.0582183 C167,18.4335171 165.845285,16.5032918 164,17.1164366 C162.154715,17.7295814 161,18.4335171 161,20.0582183 C161,21.6829195 162.343146,23 164,23 Z" id="Oval" fill="#5A5A5A" transform="translate(164.000000, 20.000000) rotate(28.000000) translate(-164.000000, -20.000000) "></path>
        <path d="M159.972005,13 C161.352717,13 162,11.928993 162,10.5311032 C162,9.13321352 160.880712,8 159.5,8 C158.119288,8 157,9.13321352 157,10.5311032 C157,11.928993 158.591293,13 159.972005,13 Z" id="Oval-2" fill="#5A5A5A" transform="translate(159.500000, 10.500000) rotate(28.000000) translate(-159.500000, -10.500000) "></path>
        <path d="M34.1608073,7 C36.0938039,7 37,5.50059014 37,3.54354453 C37,1.58649893 35.4329966,0 33.5,0 C31.5670034,0 30,1.58649893 30,3.54354453 C30,5.50059014 32.2278107,7 34.1608073,7 Z" id="Oval-2" fill="#5A5A5A"></path>
        <path d="M36.6251331,15.3834956 C35.4975229,16.3310312 35.0181147,18.2643393 35.068539,20.4015883 C37.6803784,20.7513618 40.2277369,21.8543448 42.0409573,23.6088732 C45.8218591,27.2673912 47.5476552,31.8243338 45.638181,34.1400021 C43.6438959,36.5585229 38.7331674,33.5269642 35.4296015,29.3833948 C34.0922916,27.7060448 33.1497156,25.3524309 32.7337754,22.921324 C30.5815685,23.0318396 28.6081515,23.8120737 27.5151394,25.3351565 C26.9459832,26.4241059 26.2996066,26.7796484 25.5760095,26.4017838 C24.8524124,26.0239193 24.8105655,25.151762 25.4504687,23.7853119 C27.0247728,21.5915618 29.6667342,20.4758454 32.4955629,20.3044453 C32.4704735,17.4793847 33.2342006,14.8428422 34.999282,13.359637 C36.3018776,12.2650606 37.8240903,11.7390009 39.4400619,11.6962873 C39.7702862,10.0505393 40.5440212,8.61268493 41.8196865,7.6173191 C45.7013244,4.58858608 50.9393779,5.98494189 55,10.378603 L53.1387703,12.177896 C49.879021,8.65079269 46.0319227,7.62523651 43.3731286,9.69981889 C42.6861398,10.2358569 42.2353657,11.0427938 42.0053176,12.0061311 C44.3734556,12.618852 46.7985946,14.1051837 48.927775,16.2262711 C51.3352579,18.6246032 52.4792255,19.8866215 53.3163928,21.2256904 C54.5800348,23.2469158 54.6890969,25.1110347 53.1935553,26.547124 C50.5243809,29.1101906 46.7090588,27.278554 42.7305375,22.693624 C40.6781331,20.3283909 39.4459216,17.226719 39.2734498,14.3505551 C38.2784479,14.4191502 37.3741169,14.7541215 36.6251331,15.3834956 Z M37.4144758,27.7280927 C38.5862958,29.1978734 40.2192546,30.665614 41.6797754,31.5672428 C42.3795929,31.9992638 42.9937476,32.2713905 43.439569,32.3592251 C43.687781,32.4081272 43.7223783,32.4003787 43.6803644,32.45133 C43.9416802,32.1344256 43.9475679,31.2807726 43.4997086,30.0982059 C42.9467363,28.6380895 41.8230501,27.0039156 40.280809,25.5115953 C39.0117991,24.2836618 37.242274,23.4693928 35.3968444,23.1130458 C35.7764939,24.8675214 36.4698387,26.5432611 37.4144758,27.7280927 Z M44.6460693,20.9549657 C47.7637405,24.5478342 50.2772967,25.754527 51.440533,24.6375329 C51.8636466,24.2312393 51.8335112,23.7161564 51.1586715,22.6367344 C50.4673728,21.5309858 49.3981419,20.3514164 47.1407718,18.1026266 C45.4667316,16.4349495 43.6290333,15.2665654 41.8850218,14.7089906 C42.1278336,16.8277831 43.0808357,19.1511582 44.6460693,20.9549657 Z" id="Path-7" fill="#5A5A5A" fill-rule="nonzero" transform="translate(40.000000, 20.500000) rotate(-85.000000) translate(-40.000000, -20.500000) "></path>
        <path d="M76.0113078,70.2506499 C75.9472522,70.2434574 75.8831967,70.2362649 75.8191411,70.2290724 C75.8191411,68.6228531 75.7857208,67.0156531 75.8278056,65.4110685 C75.8804116,63.4020684 75.1501166,61.7500786 73.8439405,60.3658465 C72.9350945,59.4027034 71.8625509,58.833514 70.5046972,59.1231762 C67.9118402,59.6769998 66.2219498,61.7729639 66.0888875,64.6274113 C66.010288,66.3114405 66.018643,68.0078931 65.8178119,69.6755757 C65.4009867,73.1348482 64.9764253,76.5859474 65.3019636,80.0818364 C65.4758729,81.9512363 65.6869158,83.8154052 66.5527487,85.5069539 C67.0716914,86.5207715 67.8301462,87.0978073 68.9778853,87.0448442 C70.0067968,86.997439 71.0406595,86.9745537 72.0683332,87.0258821 C72.8221463,87.0634794 73.3602747,86.7322968 73.621448,86.0686239 C74.1026382,84.8481849 74.7042033,83.6127071 74.8586174,82.3298241 C75.3422832,78.3167279 75.6412091,74.2787849 76.0113078,70.2506499 M83.9950421,69.6582483 C83.8675499,74.6952969 83.7128264,79.7290762 82.6405923,84.6670643 C82.0622357,87.331564 81.2409632,89.8914453 79.5383854,92.0410263 C78.2065253,93.72244 76.4906413,94.6656402 74.4600496,94.7777781 C71.6329412,94.9343787 68.7878848,95.0955564 65.9672748,94.9307825 C62.741908,94.7424694 60.6178634,92.6412743 59.2108075,89.6884202 C57.527106,86.1539532 56.9824792,82.3268817 57.0004271,78.4468471 C57.0149711,75.3279112 57.4054933,72.2115909 57.6084906,69.0923281 C57.7093704,67.5452837 57.758263,65.9946429 57.8402665,64.4459638 C58.2509027,56.6875292 65.071735,50.3659629 72.4158423,51.0508864 C75.6730821,51.3546067 78.2851248,53.125273 80.420619,55.6746924 C82.8197621,58.5389478 84.0547654,61.8844479 83.9981366,65.7370201 C83.9789509,67.0437693 83.9950421,68.3511722 83.9950421,69.6582483" id="Fill-1" fill="#4A4A4A"></path>
        <path d="M146.011614,70.2538488 C145.947554,70.2466574 145.883493,70.239466 145.819432,70.2322746 C145.819432,68.6263048 145.78601,67.0193544 145.827788,65.4146922 C145.880708,63.4063311 145.150356,61.7545979 143.843769,60.3705808 C142.934852,59.4075874 141.862225,58.8388132 140.503957,59.1287573 C137.911517,59.6824949 136.221186,61.7784603 136.088423,64.6324643 C136.009817,66.3162319 136.017863,68.012421 135.817326,69.6798445 C135.400778,73.1389066 134.975874,76.5891428 135.301438,80.0844887 C135.475361,81.9535983 135.686729,83.8174777 136.552629,85.5084367 C137.071613,86.5224237 137.830126,87.099043 138.978264,87.0460881 C140.007255,86.9983634 141.040889,86.9754817 142.068952,87.027129 C142.822824,87.0647204 143.360684,86.7329355 143.621878,86.0693656 C144.102796,84.8491163 144.704408,83.6138304 144.858834,82.3311466 C145.342847,78.3186738 145.641487,74.2813581 146.011614,70.2538488 M153.995969,69.6072768 C153.86661,74.6432161 153.718992,79.6762135 152.651626,84.6153959 C152.069511,87.3079204 151.245699,89.8935545 149.522564,92.0620877 C148.187815,93.7416058 146.464989,94.6712573 144.434859,94.7810896 C141.607221,94.9340702 138.761634,95.0975111 135.941424,94.9281864 C132.751086,94.7363068 130.638636,92.657993 129.233947,89.7373051 C127.536498,86.2082904 126.988425,82.382467 127.000185,78.5036889 C127.010088,75.3852375 127.398783,72.2690744 127.600249,69.1502962 C127.702065,67.5763608 127.75746,65.9988298 127.840089,64.4235869 C128.246425,56.6879317 135.137109,50.3297559 142.441555,51.0567408 C145.666554,51.3777386 148.262088,53.1187105 150.386917,55.639949 C152.793673,58.4962412 154.045175,61.8340301 153.998754,65.6866578 C153.982661,66.9935308 153.995969,68.3004038 153.995969,69.6072768" id="Fill-3" fill="#4A4A4A"></path>
        <path d="M39.0641736,68.9274776 C39.2304202,60.7154568 40.3966002,52.9698702 43.1074627,45.5359936 C44.3475642,42.1349643 46.0210724,38.9677982 48.1390296,36.0784253 C48.5086369,35.5745213 48.9721029,35.1239148 49.4594938,34.7434027 C50.5609542,33.8835356 51.759034,33.72332 52.9595676,34.5072784 C53.6717901,34.9724206 54.3830924,35.4685722 54.9993091,36.0609825 C56.23665,37.2512943 56.2866467,38.1980525 55.3692231,39.6813392 C54.2834058,41.436282 53.1380833,43.1582771 52.1694361,44.9833142 C49.565315,49.8895953 48.219699,55.2261329 47.7353755,60.7852281 C47.4185254,64.4243197 47.3065697,68.0856994 47.2022821,71.7402958 C47.1713026,72.8211054 47.3381626,73.9613498 47.65808,74.9907999 C48.6162984,78.073659 49.1800646,81.2350108 49.512251,84.4419078 C49.8266473,87.4756685 50.7587938,90.2852566 51.9513525,93.038963 C53.0291948,95.5284427 54.0122582,98.0641137 55.0143388,100.589125 C55.7599946,102.46746 55.1520596,103.541486 53.8493856,104.474032 C52.9822654,105.094544 51.9553399,105.493145 50.9615411,105.881733 C50.2692559,106.15242 49.5916936,105.963456 49.1429505,105.263158 C48.4733631,104.218526 47.6958075,103.226869 47.17529,102.103421 C45.7462441,99.0183012 44.2957271,95.9302739 43.1145174,92.7362975 C42.4203919,90.859255 42.2213254,88.7790357 41.8041752,86.7889378 C41.2223121,84.0119743 40.7294001,81.2104616 40.0432495,78.4622465 C39.2368615,75.2311233 38.8341275,71.9806193 39.0641736,68.9274776" id="Fill-5" fill="#4A4A4A"></path>
        <path d="M173,70.6123104 C172.664755,75.6590966 172.304068,80.6655059 171.06935,85.5514306 C170.497339,87.8141506 169.739446,90.0003161 168.619968,92.0146376 C167.768088,93.5483127 167.183804,95.1782464 166.692012,96.8821505 C165.888922,99.6642786 164.37164,101.974805 162.313777,103.866704 C162.275762,103.901266 162.237449,103.936152 162.197638,103.968453 C160.322064,105.495022 159.149306,105.346435 157.661658,103.394456 C156.083614,101.323607 155.849242,100.134911 157.246793,97.929042 C159.207376,94.8342354 160.384922,91.3650544 161.857006,88.0273405 C163.613149,84.0458578 164.533276,79.8818715 164.707184,75.518262 C164.829608,72.4560799 165.080743,69.3515829 164.761063,66.3291316 C164.373436,62.6658186 163.585013,59.0289928 162.710084,55.4548319 C161.880653,52.0647896 160.797094,48.7367662 159.656065,45.4500887 C159.222342,44.2006667 158.309399,43.1469918 157.627834,41.9951203 C157.119879,41.1368695 156.546371,40.3051059 156.170418,39.381929 C155.962087,38.8705963 155.948318,38.1425205 156.109655,37.6037315 C156.596059,35.9815502 157.55001,34.661065 158.793408,33.6170805 C159.797047,32.7743344 160.342119,32.7578606 161.173645,33.7969999 C162.669675,35.6662876 164.089975,37.6105148 165.473757,39.5789682 C167.517852,42.4861031 168.49515,45.9336421 169.353316,49.3727827 C170.517094,54.0355041 171.542284,58.7457087 172.421104,63.4801394 C172.853031,65.8058473 172.821602,68.2316899 173,70.6123104" id="Fill-7" fill="#4A4A4A"></path>
        <path d="M111.330819,101.315267 C106.608032,101.315267 101.884013,101.247058 97.1633825,101.348046 C95.1976087,101.389766 93.2416945,101.936755 91.2753044,101.989401 C89.1594786,102.046021 87.0297876,101.867885 84.920124,101.643394 C83.7452814,101.518566 83.2063882,100.496107 83.0591093,99.3200133 C82.8622238,97.7449353 83.1592466,96.2503165 83.9193664,94.876883 C84.3051264,94.1799019 84.8686688,93.8219747 85.64327,93.8756141 C89.5797475,94.1481155 93.4777106,93.5627176 97.3929282,93.3061094 C101.105098,93.0624144 104.832057,92.9855974 108.55193,93.0021528 C111.549273,93.0153971 114.545692,93.2720053 117.541494,93.4309369 C120.129968,93.5683465 122.71721,93.7206559 125.305068,93.8643565 C125.586993,93.8799185 125.870151,93.8683298 126.151768,93.8881962 C127.616547,93.9901773 128.095358,94.5083604 127.984744,96.0652274 C127.881526,97.518789 127.656602,98.9617551 127.509323,100.412337 C127.424899,101.242754 126.972587,101.668889 126.250673,101.670214 C124.456519,101.673525 122.660825,101.644387 120.868212,101.57055 C117.688773,101.439432 114.510566,101.264938 111.331744,101.108655 C111.331436,101.177526 111.331127,101.246396 111.330819,101.315267" id="Fill-10" fill="#4A4A4A"></path>
        <path d="M23.3392868,71.9967306 C20.7243148,72.0350703 17.9994725,70.6563868 15.4786308,68.7149754 C14.341351,67.8390368 13.186171,66.9733014 11.9634023,66.2278415 C11.402015,65.8855669 10.6637861,65.7229323 9.99592358,65.6910856 C8.68704875,65.6289382 7.76673166,66.3243091 7.28034007,67.5672577 C7.14022473,67.9253011 7.05010649,68.3022052 6.93529832,68.6701427 C6.72265631,69.3525276 6.29274293,69.7795206 5.54988471,69.7918883 C3.79072731,69.8215706 2.14822981,69.3815916 0.628256089,68.4988508 C0.171801036,68.2335647 -0.0241752711,67.8347081 0.00236640204,67.2741445 C0.0949536339,65.3042874 0.324569969,63.374316 1.36802807,61.6403719 C2.64202838,59.5227215 4.67956473,58.6307049 6.98159194,58.2547284 C9.47589196,57.8472144 11.9973509,57.8237159 14.3046247,58.9766898 C15.8965079,59.7722387 17.3387083,60.8726502 18.8343007,61.8574241 C19.818503,62.5051796 20.7508564,63.2376535 21.7625263,63.8374844 C22.2523127,64.127815 22.8618453,64.2453076 23.4334172,64.3584716 C24.0741208,64.4858584 24.3469445,64.0047569 24.5432295,63.5063407 C24.9283923,62.528369 25.2755945,61.5355561 25.6737196,60.5631498 C26.1841838,59.3171093 27.1538808,58.7815902 28.4775696,58.8319883 C29.9851983,58.8894979 31.3885121,59.2481597 32.4646844,60.3763983 C32.7418288,60.667038 33.0195905,61.1354627 32.9989127,61.5058737 C32.7797896,65.4792896 31.2567296,68.7703206 27.8044604,70.9618677 C26.6560701,71.6909405 25.3687989,72.0378531 23.3392868,71.9967306" id="Fill-12" fill="#4A4A4A"></path>
        <path d="M188.467271,58.0057332 C191.853988,57.8975518 194.629343,59.3317285 197.205642,61.3439033 C198.335782,62.2263547 199.527953,63.0321518 200.724137,63.8243491 C201.072869,64.0552392 201.523135,64.1587842 201.941923,64.250893 C202.986886,64.4799286 203.233159,64.3290927 203.616456,63.3366053 C203.994815,62.3570997 204.348794,61.3664668 204.765113,60.4030338 C205.20396,59.3864374 206.015303,58.8718029 207.126309,58.8489302 C208.748686,58.8149304 210.253174,59.1626564 211.435161,60.3507977 C211.719393,60.6367057 212.016279,61.0997223 211.999305,61.4675392 C211.826482,65.2647076 210.395753,68.4504964 207.233398,70.6972703 C205.563494,71.8832479 203.67787,72.1530833 201.653987,71.9271387 C198.891285,71.6183579 196.610945,70.3241989 194.453125,68.6949864 C193.307863,67.8301531 192.16044,66.9545017 190.935865,66.2120679 C190.375115,65.8720691 189.629507,65.710106 188.96352,65.6983606 C187.658397,65.6751789 186.5943,66.3109767 186.294637,67.6069903 C185.788203,69.7984371 185.29504,70.1090724 182.682941,69.619165 C181.668531,69.4290748 180.698253,68.9608037 179.735072,68.5549687 C179.200555,68.3299514 178.97033,67.8728075 179.003043,67.2422643 C179.103959,65.3002529 179.327086,63.3959506 180.347668,61.6823566 C181.644768,59.5038916 183.735002,58.6350401 186.092496,58.2434233 C186.875755,58.1132965 187.675371,58.0820784 188.467271,58.0057332" id="Fill-14" fill="#4A4A4A"></path>
    </g>
</svg>