<?xml version="1.0" encoding="UTF-8"?>
<svg width="306px" height="95px" viewBox="0 0 306 95" version="1.1" xmlns="http://www.w3.org/2000/svg" xmlns:xlink="http://www.w3.org/1999/xlink">
    <!-- Generator: Sketch 49.3 (51167) - http://www.bohemiancoding.com/sketch -->
    <title>Artboard 6</title>
    <desc>Created with Sketch.</desc>
    <defs></defs>
    <g id="Artboard-6" stroke="none" stroke-width="1" fill="none" fill-rule="evenodd">
        <path d="M257.785714,45 C257.785714,45.7346667 258.385714,46.3333333 259.125,46.3333333 C259.864286,46.3333333 260.464286,45.7346667 260.464286,45 C260.464286,44.2653333 259.864286,43.6666667 259.125,43.6666667 C258.385714,43.6666667 257.785714,44.2653333 257.785714,45 Z M260.464286,69 C260.464286,68.2653333 259.864286,67.6666667 259.125,67.6666667 C258.385714,67.6666667 257.785714,68.2653333 257.785714,69 C257.785714,69.7346667 258.385714,70.3333333 259.125,70.3333333 C259.864286,70.3333333 260.464286,69.7346667 260.464286,69 Z M249.75,45 C249.75,44.2653333 249.15,43.6666667 248.410714,43.6666667 C247.671429,43.6666667 247.071429,44.2653333 247.071429,45 C247.071429,45.7346667 247.671429,46.3333333 248.410714,46.3333333 C249.15,46.3333333 249.75,45.7346667 249.75,45 Z M249.75,61 C249.75,60.2653333 249.15,59.6666667 248.410714,59.6666667 C247.671429,59.6666667 247.071429,60.2653333 247.071429,61 C247.071429,61.7346667 247.671429,62.3333333 248.410714,62.3333333 C249.15,62.3333333 249.75,61.7346667 249.75,61 Z M257.785714,31.6666667 C257.785714,32.4013333 258.385714,33 259.125,33 C259.864286,33 260.464286,32.4013333 260.464286,31.6666667 C260.464286,30.932 259.864286,30.3333333 259.125,30.3333333 C258.385714,30.3333333 257.785714,30.932 257.785714,31.6666667 Z M249.75,33 L249.75,41.2453333 C250.885714,41.648 251.777679,42.5373333 252.180804,43.6666667 L255.354911,43.6666667 C255.909375,42.1173333 257.38125,41 259.125,41 C261.340179,41 263.142857,42.7946667 263.142857,45 C263.142857,46.736 262.019196,48.2013333 260.464286,48.7546667 L260.464286,65.2453333 C262.019196,65.7986667 263.142857,67.264 263.142857,69 C263.142857,70.736 262.019196,72.2013333 260.464286,72.7546667 L260.464286,77 C260.464286,77.736 259.865625,78.3333333 259.125,78.3333333 C258.384375,78.3333333 257.785714,77.736 257.785714,77 L257.785714,72.7533333 C256.418304,72.2693333 255.399107,71.0773333 255.170089,69.6133333 L250.142411,64.6093333 C250.138393,64.6066667 250.138393,64.6013333 250.134375,64.5973333 C249.610714,64.848 249.030804,65 248.410714,65 C246.195536,65 244.392857,63.2053333 244.392857,61 C244.392857,58.7946667 246.195536,57 248.410714,57 C250.625893,57 252.428571,58.7946667 252.428571,61 C252.428571,61.616 252.275893,62.1946667 252.024107,62.716 C252.028125,62.72 252.032143,62.7213333 252.036161,62.724 L255.929464,66.6013333 C256.399554,65.9826667 257.039732,65.5106667 257.785714,65.2453333 L257.785714,48.7533333 C256.65,48.352 255.758036,47.4626667 255.354911,46.3333333 L252.180804,46.3333333 C251.626339,47.8826667 250.154464,49 248.410714,49 C246.195536,49 244.392857,47.2053333 244.392857,45 C244.392857,43.264 245.516518,41.7986667 247.071429,41.2453333 L247.071429,31.6666667 C247.071429,30.9306667 247.670089,30.3333333 248.410714,30.3333333 L255.354911,30.3333333 C255.758036,29.204 256.65,28.3146667 257.785714,27.912 L257.785714,23.6666667 C257.785714,22.9306667 258.384375,22.3333333 259.125,22.3333333 C259.865625,22.3333333 260.464286,22.9306667 260.464286,23.6666667 L260.464286,27.912 C262.019196,28.4653333 263.142857,29.9306667 263.142857,31.6666667 C263.142857,33.872 261.340179,35.6666667 259.125,35.6666667 C257.38125,35.6666667 255.909375,34.5493333 255.354911,33 L249.75,33 Z M302.829911,58.66 C304.824107,56.9146667 306,54.3893333 306,51.6666667 C306,48.8133333 304.726339,46.192 302.537946,44.432 C303.053571,43.3613333 303.321429,42.1946667 303.321429,41 C303.321429,38.248 301.870982,35.7133333 299.582143,34.2666667 C300.273214,33.068 300.642857,31.716 300.642857,30.3333333 C300.642857,26.8933333 298.447768,23.9026667 295.270982,22.7986667 C295.280357,22.6426667 295.285714,22.488 295.285714,22.3333333 C295.285714,17.9213333 291.681696,14.3333333 287.25,14.3333333 C286.169196,14.3333333 285.116518,14.552 284.133482,14.9733333 C282.981696,11.5013333 279.669643,9 275.866071,9 C270.230357,9 267.724554,14.0613333 267.1875,16.7386667 C267.178125,16.7826667 267.190179,16.8253333 267.1875,16.8706667 C267.183482,16.916 267.160714,16.9533333 267.160714,17 L267.160714,79.5866667 C266.858036,83.372 263.629018,86.3333333 259.794643,86.3333333 C255.973661,86.3333333 252.754018,83.3613333 252.463393,79.5653333 C252.409821,78.8706667 251.788393,78.3333333 251.089286,78.3333333 C250.671429,78.3333333 250.277679,78.528 250.023214,78.8586667 C248.983929,80.22 247.419643,81 245.732143,81 C242.777679,81 240.375,78.608 240.375,75.6666667 C240.375,74.456 240.798214,73.2986667 241.601786,72.3186667 C241.963393,71.8773333 242.003571,71.2546667 241.699554,70.7706667 C241.396875,70.2866667 240.823661,70.0466667 240.258482,70.1786667 C239.809821,70.2826667 239.409375,70.3333333 239.035714,70.3333333 C236.08125,70.3333333 233.678571,67.9413333 233.678571,65 C233.678571,62.8013333 235.080804,60.8013333 237.166071,60.0226667 C237.662946,59.8373333 238.003125,59.3786667 238.033929,58.8533333 C238.064732,58.3266667 237.780804,57.8306667 237.312054,57.5893333 C235.070089,56.4386667 233.678571,54.168 233.678571,51.6666667 C233.678571,49.3146667 234.893304,47.1813333 236.929018,45.96 C237.246429,45.7693333 237.470089,45.456 237.547768,45.0946667 C237.624107,44.732 237.546429,44.356 237.333482,44.0533333 C236.694643,43.1453333 236.357143,42.0906667 236.357143,41 C236.357143,38.7853333 237.774107,36.7813333 239.880804,36.012 C240.297321,35.86 240.612054,35.512 240.720536,35.084 C240.827679,34.6546667 240.713839,34.2 240.417857,33.8706667 C239.525893,32.88 239.035714,31.624 239.035714,30.3333333 C239.035714,27.7493333 240.895982,25.548 243.456696,25.0973333 C243.815625,25.0333333 244.135714,24.8266667 244.337946,24.524 C244.540179,24.2213333 244.609821,23.8493333 244.532143,23.4946667 C244.438393,23.0786667 244.392857,22.6986667 244.392857,22.3333333 C244.392857,19.392 246.795536,17 249.75,17 C250.909821,17 252.028125,17.3853333 252.985714,18.1146667 C253.375446,18.4106667 253.896429,18.472 254.342411,18.2746667 C254.791071,18.076 255.09375,17.6506667 255.135268,17.1653333 C255.389732,14.0826667 258.025446,11.6666667 261.133929,11.6666667 C262.625893,11.6666667 263.859375,12.144 264.904018,13.1253333 C265.44375,13.6306667 266.291518,13.6053333 266.797768,13.0693333 C267.305357,12.5333333 267.28125,11.6906667 266.742857,11.1853333 C265.198661,9.73466667 263.311607,9 261.133929,9 C257.330357,9 254.018304,11.5013333 252.866518,14.9733333 C251.883482,14.552 250.830804,14.3333333 249.75,14.3333333 C245.318304,14.3333333 241.714286,17.9213333 241.714286,22.3333333 C241.714286,22.488 241.719643,22.6426667 241.729018,22.7986667 C238.552232,23.9026667 236.357143,26.8933333 236.357143,30.3333333 C236.357143,31.716 236.726786,33.068 237.417857,34.2666667 C235.129018,35.7133333 233.678571,38.248 233.678571,41 C233.678571,42.1946667 233.946429,43.3613333 234.462054,44.432 C232.273661,46.192 231,48.8133333 231,51.6666667 C231,54.3893333 232.175893,56.9146667 234.170089,58.66 C232.213393,60.1493333 231,62.488 231,65 C231,69.124 234.151339,72.5293333 238.182589,72.9546667 C237.861161,73.8186667 237.696429,74.7306667 237.696429,75.6666667 C237.696429,80.0786667 241.300446,83.6666667 245.732143,83.6666667 C247.395536,83.6666667 248.978571,83.164 250.307143,82.2426667 C251.673214,86.1813333 255.448661,89 259.794643,89 C265.028571,89 269.438839,84.944 269.835268,79.768 C269.836607,79.7506667 269.828571,79.7346667 269.828571,79.7173333 C269.829911,79.6986667 269.839286,79.6853333 269.839286,79.6666667 L269.839286,17.1466667 C270.0375,16.328 271.359375,11.6666667 275.866071,11.6666667 C278.974554,11.6666667 281.610268,14.0826667 281.864732,17.1653333 C281.90625,17.6506667 282.208929,18.076 282.657589,18.2746667 C283.103571,18.472 283.624554,18.4106667 284.014286,18.1146667 C284.971875,17.3853333 286.090179,17 287.25,17 C290.204464,17 292.607143,19.392 292.607143,22.3333333 C292.607143,22.6986667 292.561607,23.0786667 292.467857,23.4946667 C292.390179,23.8493333 292.459821,24.2213333 292.662054,24.524 C292.864286,24.8266667 293.184375,25.0333333 293.543304,25.0973333 C296.104018,25.548 297.964286,27.7493333 297.964286,30.3333333 C297.964286,31.624 297.474107,32.88 296.582143,33.8706667 C296.286161,34.2 296.172321,34.6546667 296.279464,35.084 C296.387946,35.512 296.702679,35.86 297.119196,36.012 C299.225893,36.7813333 300.642857,38.7853333 300.642857,41 C300.642857,42.0906667 300.305357,43.1453333 299.666518,44.0533333 C299.453571,44.356 299.375893,44.732 299.452232,45.0946667 C299.529911,45.456 299.753571,45.7693333 300.070982,45.96 C302.106696,47.1813333 303.321429,49.3146667 303.321429,51.6666667 C303.321429,54.168 301.929911,56.4386667 299.687946,57.5893333 C299.219196,57.8306667 298.935268,58.3266667 298.966071,58.8533333 C298.996875,59.3786667 299.337054,59.8373333 299.833929,60.0226667 C301.919196,60.8013333 303.321429,62.8013333 303.321429,65 C303.321429,67.9413333 300.91875,70.3333333 297.964286,70.3333333 C297.590625,70.3333333 297.190179,70.2826667 296.741518,70.1786667 C296.179018,70.0466667 295.604464,70.2866667 295.300446,70.7706667 C294.996429,71.2546667 295.036607,71.8773333 295.398214,72.3186667 C296.201786,73.2986667 296.625,74.456 296.625,75.6666667 C296.625,78.608 294.222321,81 291.267857,81 C289.575,81 288.013393,80.2106667 286.984821,78.8333333 C286.639286,78.3733333 286.037946,78.1853333 285.490179,78.364 C285.291964,78.4293333 285.117857,78.5373333 284.977232,78.6746667 C284.728125,78.896 284.563393,79.2106667 284.536607,79.5653333 C284.245982,83.3613333 281.026339,86.3333333 277.205357,86.3333333 C275.521875,86.3333333 273.933482,85.7826667 272.611607,84.7413333 C272.029018,84.284 271.189286,84.3826667 270.729911,84.9586667 C270.270536,85.536 270.369643,86.3746667 270.948214,86.832 C272.722768,88.2293333 274.945982,89 277.205357,89 C281.554018,89 285.332143,86.176 286.695536,82.2333333 C288.020089,83.1613333 289.600446,83.6666667 291.267857,83.6666667 C295.699554,83.6666667 299.303571,80.0786667 299.303571,75.6666667 C299.303571,74.7306667 299.138839,73.8186667 298.817411,72.9546667 C302.848661,72.5293333 306,69.124 306,65 C306,62.488 304.786607,60.1493333 302.829911,58.66 Z M279.214286,69 C279.214286,69.736 279.812946,70.3333333 280.553571,70.3333333 C282.50625,70.3333333 284.571429,72.3893333 284.571429,74.3333333 C284.571429,75.0693333 285.170089,75.6666667 285.910714,75.6666667 C286.651339,75.6666667 287.25,75.0693333 287.25,74.3333333 C287.25,70.9066667 283.995536,67.6666667 280.553571,67.6666667 C279.812946,67.6666667 279.214286,68.264 279.214286,69 Z M291.267857,33 C289.315179,33 287.25,30.944 287.25,29 C287.25,28.264 286.651339,27.6666667 285.910714,27.6666667 C285.170089,27.6666667 284.571429,28.264 284.571429,29 C284.571429,32.4266667 287.825893,35.6666667 291.267857,35.6666667 C292.008482,35.6666667 292.607143,35.0693333 292.607143,34.3333333 C292.607143,33.5973333 292.008482,33 291.267857,33 Z M275.196429,62.3333333 C275.937054,62.3333333 276.535714,61.736 276.535714,61 C276.535714,59.056 278.600893,57 280.553571,57 C281.294196,57 281.892857,56.4026667 281.892857,55.6666667 C281.892857,54.9306667 281.294196,54.3333333 280.553571,54.3333333 C277.111607,54.3333333 273.857143,57.5733333 273.857143,61 C273.857143,61.736 274.455804,62.3333333 275.196429,62.3333333 Z M280.553571,46.3333333 C281.294196,46.3333333 281.892857,45.736 281.892857,45 C281.892857,44.264 281.294196,43.6666667 280.553571,43.6666667 C278.600893,43.6666667 276.535714,41.6106667 276.535714,39.6666667 C276.535714,38.9306667 275.937054,38.3333333 275.196429,38.3333333 C274.455804,38.3333333 273.857143,38.9306667 273.857143,39.6666667 C273.857143,43.0933333 277.111607,46.3333333 280.553571,46.3333333 Z M293.946429,41 C293.205804,41 292.607143,41.5973333 292.607143,42.3333333 C292.607143,44.2773333 290.541964,46.3333333 288.589286,46.3333333 C287.848661,46.3333333 287.25,46.9306667 287.25,47.6666667 C287.25,48.4026667 287.848661,49 288.589286,49 C292.03125,49 295.285714,45.76 295.285714,42.3333333 C295.285714,41.5973333 294.687054,41 293.946429,41 Z M288.589286,57 C287.848661,57 287.25,57.5973333 287.25,58.3333333 C287.25,59.0693333 287.848661,59.6666667 288.589286,59.6666667 C290.541964,59.6666667 292.607143,61.7226667 292.607143,63.6666667 C292.607143,64.4026667 293.205804,65 293.946429,65 C294.687054,65 295.285714,64.4026667 295.285714,63.6666667 C295.285714,60.24 292.03125,57 288.589286,57 Z M273.857143,27.6666667 C273.857143,24.24 277.111607,21 280.553571,21 C281.294196,21 281.892857,21.5973333 281.892857,22.3333333 C281.892857,23.0693333 281.294196,23.6666667 280.553571,23.6666667 C278.600893,23.6666667 276.535714,25.7226667 276.535714,27.6666667 C276.535714,28.4026667 275.937054,29 275.196429,29 C274.455804,29 273.857143,28.4026667 273.857143,27.6666667 Z" id="android-brain" fill="#FFFFFF" fill-rule="nonzero"></path>
        <path d="M152.628389,80.402201 L139.746597,92.7102671 C139.427145,93.0154916 138.920744,93.0039578 138.61552,92.6845056 C138.473302,92.5356584 138.393939,92.337715 138.393939,92.1318475 L138.393939,80.402201 L136.878788,80.402201 C129.76603,80.402201 124,74.3130589 124,66.8017213 L124,31.6004797 C124,24.0891422 129.76603,18 136.878788,18 L186.121212,18 C193.23397,18 199,24.0891422 199,31.6004797 L199,66.8017213 C199,74.3130589 193.23397,80.402201 186.121212,80.402201 L152.628389,80.402201 Z" id="Combined-Shape" stroke="#FFFFFF" stroke-width="2.4"></path>
        <rect id="Rectangle-4" fill="#FFFFFF" x="134.37234" y="36.3510638" width="52.6595745" height="2.39361702" rx="1.19680851"></rect>
        <rect id="Rectangle-4" fill="#FFFFFF" x="134.37234" y="44.3297872" width="30.0911854" height="2.39361702" rx="1.19680851"></rect>
        <rect id="Rectangle-4" fill="#FFFFFF" x="134.37234" y="52.3085106" width="45.1367781" height="2.39361702" rx="1.19680851"></rect>
        <rect id="Rectangle-4" fill="#FFFFFF" x="134.37234" y="60.287234" width="37.6139818" height="2.39361702" rx="1.19680851"></rect>
        <path d="M11.3306452,66.5967885 C5.99672865,65.4399291 2,60.6751311 2,54.972973 C2,49.2708148 5.99672865,44.5060168 11.3306452,43.3491575 L11.3306452,38.036036 C11.3306452,31.269304 16.7934933,25.7837838 23.5322581,25.7837838 L45.7822581,25.7837838 L45.7822581,18.5765766 L47.9354839,18.5765766 L47.9354839,25.7837838 L70.1854839,25.7837838 C76.9242486,25.7837838 82.3870968,31.269304 82.3870968,38.036036 L82.3870968,43.5287189 C87.3578289,44.940457 91,49.5296124 91,54.972973 C91,60.4163335 87.3578289,65.0054889 82.3870968,66.4172271 L82.3870968,69.7477477 C82.3870968,76.5144798 76.9242486,82 70.1854839,82 L23.5322581,82 C16.7934933,82 11.3306452,76.5144798 11.3306452,69.7477477 L11.3306452,66.5967885 Z M46.858871,18.5765766 C42.3002948,18.5765766 38.6048387,14.8657835 38.6048387,10.2882883 C38.6048387,5.71079306 42.3002948,2 46.858871,2 C51.4174471,2 55.1129032,5.71079306 55.1129032,10.2882883 C55.1129032,14.8657835 51.4174471,18.5765766 46.858871,18.5765766 Z" id="Combined-Shape" stroke="#FFFFFF" stroke-width="2.4"></path>
        <rect id="Rectangle-3" stroke="#FFFFFF" stroke-width="2.4" x="38.9663551" y="64.8666667" width="15.0672897" height="2.6" rx="1.3"></rect>
        <ellipse id="Oval-3" stroke="#FFFFFF" stroke-width="2.4" cx="29.0327103" cy="49.0833333" rx="7.07009346" ry="7.08333333"></ellipse>
        <ellipse id="Oval-3-Copy" stroke="#FFFFFF" stroke-width="2.4" cx="63.9672897" cy="49.0833333" rx="7.07009346" ry="7.08333333"></ellipse>
    </g>
</svg>