<svg viewbox="0 0 300 300" xmlns="http://www.w3.org/2000/svg"><g fill="#5C56FF" fill-rule="evenodd"><path d="M177.41 85.02c16.767 0 30.359-14.39 30.359-32.139 0-17.75-1.446-33.365-23.535-33.365-22.09 0-37.182 15.615-37.182 33.365s13.592 32.139 30.359 32.139zM114.359 198.886c18.056 0 32.693-15.496 32.693-34.611 0-19.116-12.583-41.825-32.693-34.612-20.11 7.214-32.694 15.496-32.694 34.612 0 19.115 14.638 34.61 32.694 34.61zM213.06 266.01c15.476 0 22.732-12.554 22.732-28.939 0-16.384-12.546-29.666-28.023-29.666s-28.023 13.282-28.023 29.666c0 16.385 17.837 28.938 33.314 28.938z"/></g></svg>