<svg viewbox="0 0 300 300" xmlns="http://www.w3.org/2000/svg"><g fill="#5C56FF" fill-rule="evenodd"><path d="M105.72 74C119.527 74 126 63.076 126 48.817 126 34.56 114.807 23 101 23S76 34.559 76 48.817C76 63.076 91.913 74 105.72 74z"/><path d="M112.897 185.817c6.435 9.612 20.844 14.559 36.948 15.322 3.887-19.115 13.209-37.407 26.764-49.698 27.533-24.966 59.765-34.57 73.966-19.992 14.509 14.895-9.348 48.25-39.7 69.344-12.754 8.863-30.227 14.282-47.77 15.63-.965 16.908 3.362 33.048 14.095 42.667 2.153 7.177 2.153 12.103 0 14.775-2.153 2.673-5.487 1.617-10.003-3.169-14.355-12.864-20.258-33.167-19.281-54.142-20.02-1.243-38.306-8.249-47.516-22.004-6.873-10.264-9.439-21.883-8.419-33.906-11.554-3.21-21.325-9.65-27.49-19.612-18.234-29.469-5.387-66.131 27.469-92.74l9.376 12.071c-27.458 22.237-37.448 50.746-24.049 72.4 3.809 6.155 10.1 10.355 17.797 12.67 5.492-17.22 17.532-34.458 34.09-49.04 18.282-16.1 27.82-23.673 37.603-28.909 14.372-7.692 26.674-7.37 35.206 3.717 15.445 20.07.612 46.101-33.45 71.956-18.13 13.762-41.09 20.771-61.42 19.833-.507 8.34 1.312 16.148 5.784 22.827zm89.494 2.235c22.603-15.709 41.257-41.789 37.438-45.708-6.637-6.814-30.932.424-53.196 20.612-10.263 9.306-17.548 23.102-21.132 37.661 13.682-1.525 27.162-5.804 36.89-12.565zm-42.858-57.261c27.913-21.188 38.477-39.726 30.542-50.036-3.172-4.122-7.666-4.24-16.31.386-8.364 4.477-17.39 11.642-34.732 26.915-13.778 12.133-23.706 26.037-28.587 39.528 16.014.089 34.396-5.642 49.087-16.793z" fill-rule="nonzero"/></g></svg>