<svg viewbox="0 0 300 300" xmlns="http://www.w3.org/2000/svg"><g fill="#5C56FF" fill-rule="evenodd"><path d="M16.69 240.234C54.826 162.37 118.706 64.162 126.7 52.952c7.992-11.21 28.947-11.065 23.528 0-38.103 77.796-102.119 165.863-110.574 177.721-8.455 11.858-28.35 20.557-22.964 9.561zM155.578 222.097c29.047-61.498 85.31-143.775 94.64-156.806 9.331-13.031 30.867-22.334 25.512-10.995-29.045 61.493-84.953 143.59-94.312 156.66-9.359 13.07-31.193 22.475-25.84 11.141zM77.398 234.334c35.481-64.58 96.237-139.832 102.316-147.288 6.08-7.456 21.979-7.657 17.772 0-36.255 65.987-91.31 138.23-98.695 147.288-7.385 9.058-26.373 9.064-21.393 0z"/></g></svg>